<svg xmlns="http://www.w3.org/2000/svg" viewBox="0 0 1080 1080"><path d="M0 0h1080v1080H0z" fill="#FEFEFE"/><path d="M0 0h1080v1080H0zm535 34-11.4 1.4-2.7.4a335 335 0 0 0-42.4 9A383 383 0 0 0 417 67l-2.5 1.1A367 367 0 0 0 328 123l-3 2.4a328 328 0 0 0-47.9 48q-3.4 4.2-7 8.2A382 382 0 0 0 193.6 342l-.5 2a386 386 0 0 0-5.8 34.3 315 315 0 0 0-2 44.4l.1 14.3.2 12.2c.6 23.1-2.3 39.2-14.7 58.9a171 171 0 0 0-9.3 17.1l-9 17.3-23.9 45.6-7.9 15-1.6 3.2-3 5.7c-10.7 20.4-18 43-11.1 66a69 69 0 0 0 45 43l2.9 1.1c7 2.2 13.8 2 21 2h3.2l7.9-.1v1.8l-.3 90.8a147 147 0 0 0 6 50.5l.7 2.2c9.6 26.4 30.1 47 55.2 59 23.1 10.1 47 10.4 71.5 5.8q12-2.1 23.8-3.5 9.6-1.3 19-3.2l2.1-.4 5-1v3l-.2 60.4c-.1 16 1.4 30 12.2 42.6l1.5 1.8a44 44 0 0 0 28.9 14.6c16.5.7 32.2-2.6 48.3-5.8q15.4-3 31-5.5l48.3-8.6q24.1-4.4 48.4-8.6 20.9-3.5 41.6-7.4 24.1-4.4 48.4-8.6 21.9-3.7 43.8-7.8l29.8-5.4 3.5-.6 16.7-2.8q16.3-2.8 32.4-6l3.2-.5a65 65 0 0 0 42.9-27.2A58 58 0 0 0 858 920v-2.7l-.1-5.8-.1-12.9v-6.9q-.2-22.2-.2-44.5l-.3-43.3a3202 3202 0 0 1-.2-52.5L857 728c-.2-10.6.3-18.1 7.6-26.2q4-4.1 8.4-8a92 92 0 0 0 9.8-10.7l4.2-5.1 1.5-1.7A333 333 0 0 0 922 628l1.2-2 10.1-18.5c47-88.7 56-194.9 26.4-298.4a426 426 0 0 0-28.1-66.9 373 373 0 0 0-56-80 293 293 0 0 0-37.3-36.4l-6.4-5.5c-7-6.4-15-11.8-22.9-17.3l-2.2-1.5A391 391 0 0 0 637 35l-2.4-.4c-15.6-2.3-30.9-3-46.6-3h-11q-21.2 0-42 2.4" fill="#FEFEFE"/><path d="m645 36 3.5.6q11.3 2 22.5 4.4l2.5.5A340 340 0 0 1 744 66l2.9 1.3A380 380 0 0 1 816 108l1.9 1.4q13 9.7 25.1 20.6l2.8 2.5a292 292 0 0 1 42 44C928.4 223 955 282.2 968 342l.7 3.1A389 389 0 0 1 938.6 597a375 375 0 0 1-67.8 99l-1.2 1.4c-1.6 1.6-1.6 1.6-3.8 3.3A20 20 0 0 0 858 716a298 298 0 0 0 0 20.7V807l.3 103.7c.2 20.4-3 36.7-17.3 52.3a57 57 0 0 1-25.7 15.5l-2.2.6c-7.6 2.2-15.3 3.5-23.1 4.8l-13.4 2.1-2.8.5-33.3 6q-23.7 4.5-47.5 8.4-21.2 3.6-42.5 7.6a2875 2875 0 0 1-47.5 8.4q-21.2 3.6-42.5 7.6-22.5 4.2-45 8a3368 3368 0 0 0-74.3 13.4 121 121 0 0 1-27 2.5 49 49 0 0 1-35.4-17.2 51 51 0 0 1-11-34.2v-2.4l.1-26.7v-14.2l.1-27.7-3.1.6-4.1.9-2 .4a150 150 0 0 1-14.5 2.2q-8.5.8-17 2.3l-13.6 2.2-2.5.3c-29.1 4.4-57.5 1.4-81.8-16.5a109 109 0 0 1-43.8-73c-1.4-10.8-1-21.7-.9-32.5l.1-46.5.2-42.4h-11l-3.1.1c-17.9.1-35-6.9-48.4-18.6a64 64 0 0 1-19.7-47.7l.2-7.8v-2.5c1.1-17 11.4-32.9 19-47.5l1.4-2.6 6-11.5 9.1-17.4 22.4-42.7 1.5-3 7.9-15 1.6-3.2 3-5.8 1.4-2.7 1.2-2.3c1.5-2.8 1.5-2.8 2.8-4.5 4.9-7.4 4.4-15.2 4.4-23.7v-17.4l.1-12.7v-12.2c.2-17.2.8-34 3.3-51.1l.4-2.3c10.8-74 43.3-147.8 94.5-202.9l7-8 2.3-2.6a358 358 0 0 1 119.3-86.7A337 337 0 0 1 478 45l2.2-.6 16.8-4.2A354 354 0 0 1 645 36M507 96l-3.7.8a309 309 0 0 0-30.6 8.6l-2.3.8A333 333 0 0 0 426 125l-2.3 1.1A304 304 0 0 0 356 173l-1.5 1.3a262 262 0 0 0-32.4 33q-3.3 4.2-6.8 8.1c-12 14.4-22 30.3-31.3 46.6l-1.3 2.3c-33 58.5-41 119.5-41.2 185.4v27a61 61 0 0 1-8.4 33.5q-9 16-17.1 32.3c-10.5 20.7-10.5 20.7-16 30.5q-9.6 17.7-18.6 35.6l-2.5 4.8-1.2 2.4a1510 1510 0 0 1-17 32.4 24 24 0 0 0-.7 13.8c4.1 4 8.2 5.1 13.7 5.1H197c26.5 0 26.5 0 36 8.7 7.6 7.8 7.5 16.2 7.5 26.4v28.4a10492 10492 0 0 1 0 93 57 57 0 0 0 13.5 40.7c7.4 8.2 18 14 29.1 15.7 6.6.3 12.7-.6 19.2-1.7q16.3-2.7 32.8-4.9a294 294 0 0 0 15.4-2.4q12.2-2.1 24.6-3.6l3.8-.5 3.4-.5c2.9-.3 2.9-.3 5.8-1.4a37 37 0 0 1 26.3 6.2 28 28 0 0 1 8.9 21.8v5.9l.3 35.5.2 18.8.3 36.8 4.2-.5 2.4-.2q5.7-.7 11.3-1.8l2.6-.5 8.4-1.5 97.6-17.4 3-.5 3.1-.6 55.5-9.7L659 949l51-9 54.2-9.4 2.8-.5 17-3.1 2.3-.4 10-1.9c2.8-.5 2.8-.5 4.7-2.7q.3-4.5.2-9V710.4c0-13.6.3-23.9 9.5-34.6l2.7-2.6 6-5.9 6.1-5.8 1.5-1.4q5.8-5.7 11-12l2.4-2.7c37.7-44.6 63.5-99 74.6-156.3l.4-2c7-35.8 6.7-73 1.6-109l-.3-2.5q-1.1-7.3-2.7-14.5l-.6-2.7q-8.1-39.6-25.4-76.3l-1.2-2.5a280 280 0 0 0-37.4-60q-7.4-9.9-15.9-18.8l-5.9-6.6A210 210 0 0 0 803 170l-1.6-1.4A356 356 0 0 0 685 104l-2.6-.9A283 283 0 0 0 622 90l-2.6-.3A342 342 0 0 0 507 96" fill="#010101"/><path d="M544 244.8h3.2l37-.4h6.2c2.6.6 2.6.6 7.6 5.6l16 52h131l6-20 3.8-11.3 2.5-8.2.6-2.3 1.2-4.5c1.3-4.5 2.3-7.6 5.9-10.7 4-.7 8-.6 12.1-.6h3.6l19.1.2 17 .1c2.2.3 2.2.3 4.2 2.3-.3 6.9-2 13-4.2 19.4l-1 3-2.8 8.6-.9 2.6-3 9-3.9 12.2a1493 1493 0 0 1-12.7 39.5l-6.8 21.2-.8 2.3-9.5 29.5-1 3L769 415q-2.1 7-4.6 14l-3 9.8a1500 1500 0 0 1-12.8 39.5l-6.8 21.2-.8 2.3-9.5 29.6-1 3-4.4 14.1-1 3.3-6.1 19.7-1 3.2-.9 2.9a10 10 0 0 1-4 5.4c-2.9.4-2.9.4-6.4.4h-22.3l-25.7.1H649c-2.9-.5-2.9-.5-4.7-2.3q-1.7-3.2-2.9-6.7l-.8-2.7-1-2.9-1-3-8.5-26.5q-4.2-13.3-8.7-26.4-4-12.2-7.7-24.5a229 229 0 0 0-5.4-16q-2.4-7-4.3-14.2-2-6.7-4.4-13.3-3.2-8.7-5.6-17.7-2-6.7-4.4-13.3-3.2-8.7-5.6-17.7-2-6.7-4.4-13.3-3.2-8.7-5.6-17.7-2.5-8.3-5.6-16.5-2-5.8-3.6-11.7a849 849 0 0 0-9.7-30.7l-3.9-12.1-4-12.4-5.8-18-1.2-3.6-2.3-6.6c-.9-3-.8-4.7.2-7.7 1.7-1.7 3.7-1.2 6-1.2M483 362l2 .6c26.5 7.3 49.3 24 63 48a107 107 0 0 1 13.3 54.3v3.4q0 10.5-2.3 20.7l-.5 2.1A96 96 0 0 1 536 535l-1.5 1.6c-8.2 8.7-17 16.2-26.5 23.4-17.2 12.7-17.2 12.7-33 27l-2.6 2.6a39 39 0 0 0-11.6 29.9l-.3 20.3v2.3c-.2 5.4-.2 5.4-1.7 7.6-2.4 1.7-4 1.7-6.9 1.7h-10l-25.4-.1h-9.3c-2.2-.3-2.2-.3-4.2-2.3-.2-1.8-.2-1.8-.2-4v-31.5c.2-24 10.6-39.8 27.2-56.5 8-7.8 17-14.6 25.8-21.4q11.2-8.5 21.5-18 2.8-2.7 5.8-5.1A58 58 0 0 0 500 488l1.3-3.2c4-15 3-32.6-4-46.4A59 59 0 0 0 460 411c-18.8-3.7-39.4-2.6-56 7.4l-5 3.6-2.2 1.6A53 53 0 0 0 379 454l-.3 10.8-.2 12.4v3.7c-.5 3.4-.9 4.9-3.5 7.1-3 .4-3 .4-6.5.3l-13-.5a709 709 0 0 1-23.9-1l-2.2-.2c-2.8-.1-5-.3-7.4-1.8-1.4-2.5-1.4-4.4-1.4-7.3v-6.8l.1-3.5c.5-28.6 9.5-55 29.5-75.9C384 359 438.5 348.8 483 362" fill="#010101"/><path d="M629 348h101c0 7.9 0 7.9-1.1 11l-.8 2.2-.8 2.2-1.7 4.8-.8 2.4-3.3 10.8q-2.6 9-5.5 18.1-3 9-5.6 18.2l-5.3 17.7q-7 21.7-13.4 43.7l-6.1 20L681 514h-2q-3.6-8.2-5.8-16.8A358 358 0 0 0 667 477a404 404 0 0 1-6.7-22.2A320 320 0 0 0 655 438q-3.7-11-6.7-22.2-2.4-8.4-5.3-16.8-3.7-11-6.8-22.3-3-10.3-6.3-20.4c-.9-3.3-.9-3.3-.9-8.3" fill="#FEFEFE"/><path d="M453 705c7.4 6 11.7 12.6 14 22 1.2 12.6 0 23.2-8.2 33.4a40 40 0 0 1-28.4 13q-6.9-.5-13.4-2.4l-2-.5a33 33 0 0 1-21-21.5l-1.1-2.8a41 41 0 0 1 2.4-28.4 38 38 0 0 1 22.4-18.5A45 45 0 0 1 453 705" fill="#010101"/></svg>